<?xml version="1.0" encoding="utf-8"?>
<!-- Generator: Adobe Illustrator 21.0.0, SVG Export Plug-In . SVG Version: 6.00 Build 0)  -->
<svg version="1.1" id="Layer_1" xmlns="http://www.w3.org/2000/svg" xmlns:xlink="http://www.w3.org/1999/xlink" x="0px" y="0px"
	 viewBox="0 0 512 512" style="enable-background:new 0 0 512 512;" xml:space="preserve">
<style type="text/css">
	.st0{fill:#FFC36E;}
	.st1{fill:#95E2FF;}
</style>
<path class="st0" d="M320.3,255.5c0,58.6-47.5,106.1-106.1,106.1s-106.1-47.5-106.1-106.1s47.5-106.1,106.1-106.1
	S320.3,196.9,320.3,255.5z"/>
<path class="st1" d="M389.6,361.6c40.8,0,73.9-33.1,73.9-73.9s-33.1-73.9-73.9-73.9c-37.9,0-69.1,28.5-73.4,65.2
	c-6.7-4-14.5-6.3-22.9-6.3c-24.6,0-44.5,19.9-44.5,44.5s19.9,44.5,44.5,44.5L389.6,361.6L389.6,361.6z"/>
<path d="M214.2,122.9c4.7,0,8.4-3.8,8.4-8.4V89.7c0-4.7-3.8-8.4-8.4-8.4s-8.4,3.8-8.4,8.4v24.7C205.8,119.1,209.6,122.9,214.2,122.9
	z"/>
<path d="M214.2,388.1c-4.7,0-8.4,3.8-8.4,8.4v24.7c0,4.7,3.8,8.4,8.4,8.4s8.4-3.8,8.4-8.4v-24.7
	C222.7,391.9,218.9,388.1,214.2,388.1z"/>
<path d="M73.2,247.1H48.4c-4.7,0-8.4,3.8-8.4,8.4s3.8,8.4,8.4,8.4h24.7c4.7,0,8.4-3.8,8.4-8.4S77.8,247.1,73.2,247.1z"/>
<path d="M314,164.2c2.2,0,4.3-0.8,6-2.5l17.5-17.5c3.3-3.3,3.3-8.6,0-11.9c-3.3-3.3-8.6-3.3-11.9,0L308,149.8
	c-3.3,3.3-3.3,8.6,0,11.9C309.7,163.4,311.8,164.2,314,164.2z"/>
<path d="M108.5,349.3L91,366.8c-3.3,3.3-3.3,8.6,0,11.9c1.6,1.6,3.8,2.5,6,2.5c2.2,0,4.3-0.8,6-2.5l17.5-17.5
	c3.3-3.3,3.3-8.6,0-11.9S111.8,346,108.5,349.3z"/>
<path d="M108.5,161.7c1.6,1.6,3.8,2.5,6,2.5s4.3-0.8,6-2.5c3.3-3.3,3.3-8.6,0-11.9L103,132.3c-3.3-3.3-8.6-3.3-11.9,0
	c-3.3,3.3-3.3,8.6,0,11.9L108.5,161.7z"/>
<path d="M389.6,205.3c-25,0-47.6,11.2-62.8,29.1c-9.9-53.1-56.6-93.4-112.6-93.4c-63.2,0-114.5,51.4-114.5,114.5
	c0,63.2,51.4,114.5,114.5,114.5c16.7,0,32.7-3.5,47.7-10.4c8.8,6.5,19.7,10.4,31.4,10.4h96.3c45.4,0,82.4-37,82.4-82.4
	S435,205.3,389.6,205.3z M116.6,255.5c0-53.9,43.8-97.7,97.7-97.7s97.7,43.8,97.7,97.7c0,0.8,0,1.6,0,2.3c0,0.7,0.1,1.4,0.2,2
	c-0.8,2.3-1.5,4.6-2.1,6.9c-5.3-1.8-10.9-2.7-16.6-2.7c-29.2,0-53,23.8-53,53c0,10.9,3.3,21.1,9,29.6c-11.2,4.3-23,6.5-35.2,6.5
	C160.4,353.2,116.6,309.4,116.6,255.5z M389.6,353.2h-96.3c-19.9,0-36.1-16.2-36.1-36.1c0-19.9,16.2-36.1,36.1-36.1
	c6.5,0,13,1.8,18.5,5.1c2.5,1.5,5.5,1.6,8.1,0.3s4.3-3.7,4.7-6.6c3.9-32.9,31.8-57.7,65-57.7c36.1,0,65.5,29.4,65.5,65.5
	C455.1,323.8,425.7,353.2,389.6,353.2z"/>
<path d="M177.3,190.6c-23.3,13.3-37.7,38.1-37.7,64.9c0,19.9,7.8,38.7,21.9,52.8c1.6,1.6,3.8,2.5,6,2.5s4.3-0.8,6-2.5
	c3.3-3.3,3.3-8.6,0-11.9c-10.9-10.9-16.9-25.4-16.9-40.9c0-20.7,11.2-40,29.2-50.2c4-2.3,5.5-7.5,3.1-11.5
	C186.5,189.7,181.3,188.3,177.3,190.6z"/>
<path d="M214.2,180.8H214c-4.7,0-8.4,3.8-8.4,8.5c0,4.6,3.8,8.4,8.4,8.4h0h0.2c4.7,0,8.4-3.8,8.4-8.4S218.9,180.8,214.2,180.8z"/>
</svg>
