<?xml version="1.0" encoding="utf-8"?>
<!-- Generator: Adobe Illustrator 21.0.0, SVG Export Plug-In . SVG Version: 6.00 Build 0)  -->
<svg version="1.1" id="Capa_1" xmlns="http://www.w3.org/2000/svg" xmlns:xlink="http://www.w3.org/1999/xlink" x="0px" y="0px"
	 viewBox="0 0 512 512" style="enable-background:new 0 0 512 512;" xml:space="preserve">
<style type="text/css">
	.st0{fill:url(#SVGID_1_);}
	.st1{fill:url(#SVGID_2_);}
	.st2{fill:url(#SVGID_3_);}
	.st3{fill:url(#SVGID_4_);}
	.st4{fill:url(#SVGID_5_);}
	.st5{fill:url(#SVGID_6_);}
	.st6{fill:url(#SVGID_7_);}
</style>
<g>
	<g>
		<linearGradient id="SVGID_1_" gradientUnits="userSpaceOnUse" x1="456.0748" y1="251.2645" x2="146.377" y2="251.2645">
			<stop  offset="0" style="stop-color:#286189"/>
			<stop  offset="1" style="stop-color:#31B3F6"/>
		</linearGradient>
		<path class="st0" d="M312.3,251.2c-30.7-53.2-28.5-116.3,0.1-166c-28.2,0-56.9,7-83.1,22.1c-56.5,32.7-86.4,93.5-82.6,154.5
			c13.4,0.4,26.1,5.2,36.3,13.7c9.7-5.4,20.3-8.1,31.5-8.1c29.7,0,55.3,20,63.4,47.9c20.9,6.5,35.7,25.7,35.7,48.4
			c0,23.7-16.4,43.5-38.4,49.2c39.5,9.1,82.4,4,120.3-17.9c26.2-15.1,46.6-36.4,60.7-60.9C398.8,334.1,343,304.4,312.3,251.2z"/>
		<linearGradient id="SVGID_2_" gradientUnits="userSpaceOnUse" x1="299.6335" y1="351.1449" x2="55.9242" y2="351.1449">
			<stop  offset="0" style="stop-color:#286189"/>
			<stop  offset="1" style="stop-color:#31B3F6"/>
		</linearGradient>
		<path class="st1" d="M299.6,363.8c0-19.2-14.8-34.9-33.5-36.6c-3.2-25.8-25-45.8-51.6-45.8c-12.7,0-24.2,4.7-33.3,12.2
			c-8.5-10.9-21.6-18-36.5-18c-22.2,0-40.8,15.6-45.4,36.4c-24.2,1.7-43.3,21.6-43.3,46.3c0,25.7,20.8,46.5,46.6,46.5
			c5.5,0,10.6-1.1,15.5-2.8c8.5,11.6,22.1,19.3,37.6,19.3c9.5,0,18.3-2.9,25.6-7.7c8.4,8.1,19.8,13.2,32.4,13.2
			c18.6,0,34.5-11,42-26.8c2.3,0.4,4.6,0.7,7,0.7C283.1,400.7,299.6,384.2,299.6,363.8z"/>
		<linearGradient id="SVGID_3_" gradientUnits="userSpaceOnUse" x1="423.5443" y1="249.7672" x2="377.6556" y2="249.7672">
			<stop  offset="0" style="stop-color:#286189"/>
			<stop  offset="1" style="stop-color:#31B3F6"/>
		</linearGradient>
		<polygon class="st2" points="401.1,271.8 407.8,257.2 423.5,254.4 411.7,243.6 413.9,227.7 400,235.6 385.6,228.6 388.8,244.3 
			377.7,255.9 393.6,257.7 		"/>
		<linearGradient id="SVGID_4_" gradientUnits="userSpaceOnUse" x1="112.1506" y1="215.3719" x2="75.6353" y2="215.3719">
			<stop  offset="0" style="stop-color:#286189"/>
			<stop  offset="1" style="stop-color:#31B3F6"/>
		</linearGradient>
		<polygon class="st3" points="82.4,232.6 93.8,226.8 105,232.8 102.9,220.2 112.2,211.4 99.6,209.4 94,198 88.3,209.4 75.6,211 
			84.7,220 		"/>
		<linearGradient id="SVGID_5_" gradientUnits="userSpaceOnUse" x1="360.6388" y1="198.7309" x2="329.1577" y2="198.7309">
			<stop  offset="0" style="stop-color:#286189"/>
			<stop  offset="1" style="stop-color:#31B3F6"/>
		</linearGradient>
		<polygon class="st4" points="340.1,204.2 345.3,213.9 349.8,203.8 360.6,201.9 352.5,194.5 354,183.6 344.5,189 334.6,184.2 
			336.8,195 329.2,202.9 		"/>
		<linearGradient id="SVGID_6_" gradientUnits="userSpaceOnUse" x1="404.84" y1="172.057" x2="385.5117" y2="172.057">
			<stop  offset="0" style="stop-color:#286189"/>
			<stop  offset="1" style="stop-color:#31B3F6"/>
		</linearGradient>
		<polygon class="st5" points="392.2,175.4 395.4,181.3 398.2,175.2 404.8,174 399.9,169.4 400.8,162.8 394.9,166.1 388.9,163.2 
			390.2,169.8 385.5,174.6 		"/>
		<linearGradient id="SVGID_7_" gradientUnits="userSpaceOnUse" x1="165.5125" y1="131.9895" x2="146.1842" y2="131.9895">
			<stop  offset="0" style="stop-color:#286189"/>
			<stop  offset="1" style="stop-color:#31B3F6"/>
		</linearGradient>
		<polygon class="st6" points="152.9,135.3 156.1,141.3 158.9,135.1 165.5,133.9 160.5,129.4 161.5,122.7 155.6,126 149.5,123.1 
			150.9,129.7 146.2,134.5 		"/>
	</g>
</g>
</svg>
